<svg width="3838" height="1080" viewBox="0 0 3838 1080" fill="none" xmlns="http://www.w3.org/2000/svg">
<rect width="3838" height="1080" fill="transparent"/>
<path d="M376.258 353.52C354.81 371.692 325.281 372.264 305.262 369.76C319.629 355.072 336.6 343.184 355.31 334.705C428.165 302.369 421.516 200.209 421.087 199.064C420.443 180.964 391.201 181.751 392.488 201.21C392.488 201.926 396.849 268.029 358.956 299.149C358.492 277.742 349.963 257.3 335.077 241.917C351.823 222.617 364.038 199.81 370.825 175.17C371.294 173.347 371.4 171.45 371.137 169.586C370.874 167.722 370.246 165.929 369.29 164.308C368.334 162.687 367.068 161.27 365.565 160.139C364.062 159.007 362.351 158.183 360.529 157.714C358.708 157.244 356.812 157.138 354.949 157.401C353.087 157.665 351.294 158.293 349.674 159.249C348.054 160.206 346.639 161.472 345.508 162.977C344.377 164.481 343.554 166.193 343.084 168.015C337.498 188.261 327.513 207.022 313.842 222.959C292.393 196.846 306.335 147.126 306.692 146.553C307.585 142.978 307.066 139.197 305.241 135.996C303.417 132.795 300.429 130.422 296.899 129.37C293.37 128.319 289.571 128.671 286.294 130.353C283.017 132.034 280.515 134.916 279.309 138.398C278.308 141.688 255.429 220.312 306.478 254.437C333.218 272.25 332.074 302.512 330.286 315.103C308.211 327.337 288.657 343.65 272.66 363.178C271.519 350.149 269.125 337.259 265.51 324.689C274.887 311.843 281.596 297.248 285.243 281.765C285.614 279.914 285.617 278.009 285.252 276.157C284.887 274.305 284.161 272.543 283.115 270.972C282.069 269.401 280.725 268.051 279.158 267C277.591 265.949 275.832 265.217 273.983 264.846C272.133 264.475 270.229 264.472 268.378 264.837C266.527 265.203 264.766 265.929 263.196 266.975C261.626 268.022 260.277 269.367 259.227 270.935C258.176 272.503 257.445 274.263 257.074 276.113C255.617 281.809 253.655 287.364 251.211 292.711C237.698 270.39 229.762 269.889 211.888 249.357C232.36 225.868 243.369 195.599 242.775 164.438C242.805 162.336 242.372 160.253 241.507 158.337C240.642 156.421 239.365 154.719 237.767 153.353C236.17 151.987 234.291 150.99 232.265 150.433C230.239 149.876 228.115 149.773 226.044 150.13C203.309 153.922 225.615 185.114 194.8 225.32C186.91 212.681 181.363 198.722 178.428 184.112C178.208 182.22 177.612 180.391 176.677 178.733C175.741 177.074 174.484 175.619 172.979 174.453C171.474 173.287 169.752 172.434 167.913 171.942C166.074 171.451 164.155 171.332 162.27 171.592C132.67 175.098 164.057 233.761 180.859 256.368C196.159 286.988 243.49 288.633 244.419 381.779C222.636 362.838 198.394 346.931 172.351 334.491C180.416 324.896 185.068 312.893 185.577 300.366C185.502 296.571 183.922 292.962 181.187 290.332C178.452 287.702 174.785 286.268 170.992 286.344C167.2 286.42 163.593 288 160.965 290.737C158.337 293.474 156.903 297.143 156.979 300.938C155.947 308.327 152.504 315.169 147.184 320.397C112.794 291.352 121.231 235.979 121.231 200.209C121.244 197.917 120.708 195.655 119.666 193.614C118.624 191.573 117.107 189.812 115.243 188.48C113.379 187.147 111.222 186.283 108.955 185.958C106.687 185.634 104.375 185.86 102.213 186.616C90.7016 190.265 92.632 202.784 92.632 214.517C92.632 251.36 86.6978 319.252 141.607 351.159C150.187 356.883 173.852 363.894 207.956 389.148C226.33 402.812 217.465 422.199 212.317 439.226C211.655 441.372 211.507 443.643 211.885 445.857C212.263 448.07 213.156 450.164 214.493 451.968C215.829 453.772 217.571 455.236 219.578 456.241C221.585 457.247 223.8 457.765 226.044 457.755H287.674C289.902 457.758 292.1 457.241 294.093 456.243C296.085 455.246 297.817 453.796 299.151 452.01C300.484 450.224 301.382 448.151 301.773 445.957C302.164 443.762 302.037 441.506 301.402 439.369L291.678 407.104C291.329 405.952 291.276 404.73 291.524 403.552C291.772 402.374 292.313 401.278 293.098 400.365C293.882 399.452 294.884 398.751 296.01 398.329C297.137 397.906 298.352 397.775 299.543 397.947C332.789 402.526 367.464 397.947 393.704 376.485C395.211 375.339 396.477 373.907 397.431 372.271C398.385 370.635 399.007 368.827 399.263 366.95C399.519 365.074 399.402 363.165 398.921 361.333C398.439 359.501 397.602 357.783 396.456 356.275C395.311 354.767 393.88 353.499 392.245 352.545C390.61 351.59 388.803 350.968 386.927 350.712C385.052 350.456 383.144 350.572 381.314 351.054C379.483 351.536 377.765 352.374 376.258 353.52Z" fill="url(#paint0_linear_7_91)"/>
<path d="M406.431 82.6533C439.67 82.6533 467.25 88.3839 488.856 100.206C510.258 111.917 526.205 127.589 536.45 147.26C546.577 166.703 551.619 187.946 551.619 210.902C551.619 228.95 548.81 245.703 543.133 261.112C537.826 276.182 528.539 291.839 515.467 308.08L515.448 308.104L515.429 308.127C502.373 323.953 484.079 342.624 460.628 364.121L460.62 364.129L409.982 410.343H558.628V505.624H254.234V424.296L255.788 422.817L362.682 321.181L362.693 321.171L362.702 321.161C382.139 302.891 397.237 287.984 408.033 276.416L408.037 276.412C419.147 264.537 426.76 254.055 431.129 244.953L431.164 244.881L431.201 244.811C435.896 235.783 438.231 226.254 438.231 216.159C438.231 203.786 434.971 195.111 429.181 189.32L429.133 189.272L429.087 189.224C423.334 183.151 414.351 179.687 401.174 179.687C393.577 179.687 387.003 181.739 381.277 185.781L381.195 185.839L381.11 185.894C375.494 189.527 370.804 195.28 367.208 203.55L367.192 203.588L367.174 203.625C363.643 211.394 361.573 221.586 361.196 234.413L361.052 239.267H252.95L253.067 234.153C253.859 199.282 261.197 170.465 275.459 148.054C289.365 126.202 307.647 109.933 330.262 99.374L331.342 98.875C354.241 88.0405 379.296 82.6534 406.431 82.6533Z" fill="#2A2A2A" stroke="white" stroke-width="10"/>
<path d="M639.687 192.467C670.58 192.467 697.058 197.611 718.928 208.134C740.686 218.214 758.297 232.77 771.66 251.78C785.355 270.711 795.14 293.358 801.106 319.608C807.043 345.731 809.993 374.536 809.993 405.997C809.993 437.841 807.044 466.843 801.106 492.97C795.146 519.194 785.373 541.82 771.7 560.74L771.701 560.741C758.326 579.79 740.688 594.369 718.891 604.46C697.034 614.58 670.571 619.527 639.687 619.527C608.799 619.527 582.159 614.578 559.931 604.475L559.915 604.468L559.899 604.46C538.103 594.369 520.465 579.79 507.09 560.741C493.805 541.821 484.228 519.194 478.268 492.97C472.33 466.843 469.383 437.841 469.383 405.997C469.383 374.536 472.331 345.731 478.268 319.608C484.228 293.384 493.805 270.758 507.09 251.837C520.465 232.788 538.102 218.208 559.899 208.117C582.138 197.612 608.792 192.467 639.687 192.467ZM639.687 289.5C626.004 289.501 615.963 292.644 608.955 298.317C601.578 304.289 595.835 312.447 591.819 323.002C588.105 333.797 585.648 346.388 584.508 360.83V360.84C583.351 375.101 582.771 390.152 582.771 405.997C582.771 422.622 583.35 438.258 584.507 452.906C585.644 466.93 588.093 479.319 591.803 490.116C595.796 500.243 601.514 508.22 608.898 514.214C615.913 519.533 625.983 522.493 639.687 522.493C653.397 522.493 663.469 519.53 670.485 514.208C677.846 508.228 683.359 500.279 686.966 490.18L686.981 490.134L686.999 490.088C691.087 479.312 693.73 466.934 694.868 452.906C696.024 438.258 696.604 422.622 696.604 405.997C696.604 390.152 696.024 375.101 694.868 360.84L694.867 360.83C693.728 346.401 691.081 333.836 686.999 323.074L686.971 323.002L686.947 322.93C683.316 312.4 677.776 304.271 670.421 298.317C663.413 292.644 653.37 289.5 639.687 289.5Z" fill="#2A2A2A" stroke="white" stroke-width="10"/>
<path d="M678.5 522.5L620 551L613.5 595.5L620 635.5L672.5 640C697.5 631.5 748 613.7 750 610.5C752 607.3 778.5 574.833 791.5 559L783.5 539L764 528L742 551L704 559C702.667 549.833 699.5 529.7 697.5 522.5C695.5 515.3 684 519.5 678.5 522.5Z" fill="white"/>
<mask id="mask0_7_91" style="mask-type:luminance" maskUnits="userSpaceOnUse" x="557" y="424" width="441" height="437">
<path d="M993 429.909V855.703H562.637V429.909H993Z" fill="white" stroke="white" stroke-width="10"/>
</mask>
<g mask="url(#mask0_7_91)">
<mask id="path-6-outside-1_7_91" maskUnits="userSpaceOnUse" x="565.427" y="424.909" width="417" height="410" fill="black">
<rect fill="white" x="565.427" y="424.909" width="417" height="410"/>
<path d="M676.997 776.407V744.753L657.411 729.785C650.684 724.632 645.622 717.65 642.845 709.694C640.067 701.74 639.695 693.156 641.773 684.993C643.852 676.832 648.291 669.448 654.547 663.744C660.803 658.038 668.605 654.262 676.997 652.876V646.561L656.886 633.711C644.207 625.617 634.935 613.242 630.797 598.888H621.72C609.454 598.877 597.694 594.057 589.016 585.484C580.338 576.909 575.452 565.283 575.427 553.151V523.824C575.436 517.381 576.897 511.021 579.704 505.207C582.512 499.394 586.595 494.273 591.656 490.217C596.718 486.162 602.63 483.274 608.962 481.765C615.295 480.255 621.888 480.162 628.262 481.491V478.529C628.262 467.05 632.872 456.041 641.078 447.924C649.284 439.807 660.414 435.247 672.019 435.247C683.624 435.247 694.754 439.807 702.96 447.924C711.166 456.041 715.776 467.05 715.776 478.529V565.754C715.806 566.626 716.063 567.476 716.523 568.22C716.984 568.966 717.632 569.58 718.403 570.003C719.102 570.454 719.92 570.694 720.754 570.692C721.696 570.688 722.613 570.398 723.382 569.86C724.057 569.433 724.611 568.844 724.997 568.15C725.382 567.455 725.586 566.677 725.588 565.884V556.217C725.611 546.374 729.025 536.832 735.267 529.166C741.51 521.5 750.207 516.168 759.924 514.049C769.642 511.929 779.801 513.15 788.723 517.509C797.645 521.868 804.799 529.105 809.004 538.026C815.919 531.415 824.882 527.296 834.449 526.332V477.645C834.464 466.315 839.019 455.453 847.119 447.442C855.219 439.43 866.2 434.923 877.655 434.909C889.123 434.899 900.126 439.394 908.245 447.405C916.365 455.416 920.935 466.289 920.952 477.632V528.307C923.502 527.853 926.086 527.623 928.676 527.618C940.134 527.632 951.117 532.141 959.217 540.155C967.317 548.169 971.871 559.035 971.882 570.367V619.47C971.884 626.2 970.35 632.844 967.393 638.904C964.436 644.966 960.132 650.288 954.804 654.474L920.886 681.306V693.481C920.905 700.782 919.256 707.992 916.065 714.575C912.874 721.157 908.222 726.943 902.456 731.5L868.17 758.63V779.774C871.532 778.349 875.189 777.587 878.946 777.587C887.16 777.587 894.912 781.212 900.136 787.462L923.348 815.298C926.551 819.131 923.77 824.882 918.757 824.882H637.869C632.813 824.882 630.075 819.089 633.319 815.256L651.181 794.213C658.117 786.042 667.058 779.946 676.997 776.407ZM877.655 460.896C873.169 460.903 868.869 462.671 865.698 465.811C862.528 468.951 860.748 473.208 860.748 477.645V555.333C860.747 555.932 860.626 556.525 860.392 557.078C860.16 557.63 859.818 558.132 859.389 558.555C858.959 558.977 858.451 559.311 857.89 559.539C857.33 559.767 856.73 559.883 856.124 559.881C855.09 559.88 854.089 559.526 853.287 558.881L849.451 555.749C847.723 554.284 845.715 553.178 843.545 552.497C841.375 551.817 839.089 551.576 836.823 551.789C834.557 552.003 832.358 552.666 830.357 553.739C828.357 554.812 826.595 556.273 825.178 558.035C823.76 559.797 822.717 561.823 822.109 563.993C821.502 566.162 821.343 568.431 821.641 570.663C821.941 572.894 822.692 575.045 823.85 576.982C825.007 578.921 826.548 580.609 828.38 581.944L855.165 603.241C856.932 604.632 858.357 606.402 859.336 608.416C860.313 610.43 860.819 612.636 860.814 614.87V677.33C860.806 680.743 860.027 684.112 858.535 687.191C857.041 690.268 854.871 692.977 852.183 695.118L818.686 721.625C815.36 724.261 812.674 727.603 810.83 731.404C808.986 735.206 808.029 739.368 808.032 743.584V797.935C810.736 798.586 813.526 798.922 816.345 798.922H834.586C837.05 798.922 839.479 798.61 841.819 798.014V752.29C841.825 750.404 842.255 748.544 843.077 746.843C843.899 745.141 845.094 743.642 846.574 742.454L885.983 711.269C888.68 709.135 890.857 706.429 892.35 703.349C893.845 700.27 894.619 696.897 894.614 693.481V675.927C894.611 673.693 895.118 671.488 896.097 669.474C897.074 667.461 898.498 665.692 900.262 664.297L938.358 634.126C940.587 632.361 942.388 630.122 943.627 627.576C944.865 625.031 945.512 622.242 945.517 619.418V570.367C945.517 565.925 943.733 561.665 940.558 558.524C937.382 555.383 933.075 553.618 928.584 553.618C924.094 553.618 919.787 555.383 916.612 558.524C913.435 561.665 911.651 565.925 911.651 570.367V608.321C911.645 610.553 910.749 612.693 909.158 614.276C907.567 615.86 905.409 616.759 903.152 616.78C902.028 616.785 900.912 616.569 899.872 616.147C898.832 615.724 897.886 615.101 897.09 614.315C896.292 613.529 895.662 612.593 895.232 611.566C894.803 610.537 894.585 609.435 894.587 608.321V477.645C894.587 473.203 892.803 468.943 889.628 465.802C886.452 462.661 882.146 460.896 877.655 460.896ZM787.96 785.775V739.803C787.961 731.989 789.958 724.302 793.765 717.455C797.573 710.608 803.068 704.824 809.74 700.64L826.173 690.245C831.081 687.171 835.122 682.918 837.922 677.885C840.722 672.851 842.189 667.197 842.187 661.452V626.07C842.188 623.912 841.76 621.776 840.925 619.783C840.09 617.788 838.866 615.978 837.322 614.453C835.779 612.929 833.945 611.72 831.928 610.898C829.912 610.075 827.751 609.654 825.569 609.659C823.39 609.656 821.217 610.078 819.203 610.902C817.188 611.725 815.358 612.934 813.817 614.458C812.275 615.983 811.053 617.793 810.221 619.787C809.388 621.779 808.962 623.915 808.965 626.07V656.449C808.965 659.206 807.857 661.851 805.887 663.8C803.916 665.749 801.243 666.844 798.456 666.844C795.668 666.844 792.996 665.749 791.024 663.8C789.054 661.851 787.947 659.206 787.947 656.449V652.2C787.826 647.927 786.023 643.868 782.923 640.887C779.824 637.906 775.672 636.239 771.349 636.239C767.026 636.239 762.873 637.906 759.774 640.887C756.674 643.868 754.873 647.927 754.751 652.2V773.026C766.867 773.873 778.452 778.321 787.96 785.775ZM738.239 772.878V644.417C738.235 640.735 739.166 637.111 740.947 633.878C742.729 630.645 745.302 627.906 748.433 625.914L764.354 615.74C771.258 611.328 776.934 605.275 780.865 598.134C784.797 590.994 786.856 582.993 786.856 574.863V556.204C786.856 551.617 785.015 547.218 781.736 543.975C778.457 540.732 774.009 538.91 769.372 538.91C764.735 538.91 760.288 540.732 757.009 543.975C753.729 547.218 751.887 551.617 751.887 556.204V565.871C751.883 571.001 750.582 576.048 748.101 580.553C745.621 585.058 742.04 588.876 737.687 591.663L737.437 591.819C732.493 594.983 726.729 596.667 720.84 596.667C714.951 596.667 709.186 594.983 704.242 591.819L703.861 591.572C699.485 588.793 695.885 584.972 693.391 580.458C690.896 575.945 689.586 570.885 689.582 565.741V478.529C689.58 476.256 689.126 474.006 688.245 471.906C687.364 469.807 686.074 467.9 684.448 466.294C682.822 464.688 680.892 463.415 678.768 462.547C676.653 461.682 674.386 461.236 672.098 461.234C667.461 461.238 663.016 463.061 659.738 466.304C656.46 469.546 654.616 473.943 654.613 478.529V529.489C654.613 531.843 653.668 534.1 651.985 535.765C650.303 537.429 648.02 538.364 645.641 538.364C643.261 538.364 640.979 537.429 639.297 535.765C637.614 534.1 636.669 531.843 636.669 529.489V523.824C636.669 519.237 634.827 514.839 631.548 511.595C628.269 508.352 623.822 506.53 619.184 506.53C614.547 506.53 610.1 508.352 606.821 511.595C603.542 514.839 601.7 519.237 601.7 523.824V553.151C601.71 558.394 603.825 563.42 607.578 567.123C611.332 570.826 616.418 572.905 621.72 572.901H645.641C648.032 572.905 650.324 573.847 652.014 575.52C653.703 577.194 654.652 579.462 654.652 581.827C654.658 587.8 656.172 593.677 659.058 598.924C661.944 604.17 666.111 608.62 671.178 611.868L693.076 625.914C696.199 627.905 698.769 630.638 700.549 633.863C702.329 637.088 703.266 640.704 703.27 644.378V680.929C703.271 681.409 703.178 681.884 702.993 682.328C702.807 682.772 702.535 683.176 702.193 683.515C701.85 683.854 701.443 684.123 700.993 684.306C700.545 684.489 700.065 684.582 699.578 684.58C698.762 684.583 697.969 684.307 697.332 683.801L694.889 681.93C691.215 679.343 686.673 678.261 682.212 678.911C677.751 679.561 673.716 681.892 670.952 685.416C668.188 688.941 666.909 693.385 667.382 697.821C667.855 702.257 670.044 706.339 673.49 709.216L699.395 729.044C700.599 729.965 701.574 731.147 702.245 732.498C702.918 733.849 703.267 735.334 703.27 736.84V772.878H738.239Z"/>
</mask>
<path d="M676.997 776.407V744.753L657.411 729.785C650.684 724.632 645.622 717.65 642.845 709.694C640.067 701.74 639.695 693.156 641.773 684.993C643.852 676.832 648.291 669.448 654.547 663.744C660.803 658.038 668.605 654.262 676.997 652.876V646.561L656.886 633.711C644.207 625.617 634.935 613.242 630.797 598.888H621.72C609.454 598.877 597.694 594.057 589.016 585.484C580.338 576.909 575.452 565.283 575.427 553.151V523.824C575.436 517.381 576.897 511.021 579.704 505.207C582.512 499.394 586.595 494.273 591.656 490.217C596.718 486.162 602.63 483.274 608.962 481.765C615.295 480.255 621.888 480.162 628.262 481.491V478.529C628.262 467.05 632.872 456.041 641.078 447.924C649.284 439.807 660.414 435.247 672.019 435.247C683.624 435.247 694.754 439.807 702.96 447.924C711.166 456.041 715.776 467.05 715.776 478.529V565.754C715.806 566.626 716.063 567.476 716.523 568.22C716.984 568.966 717.632 569.58 718.403 570.003C719.102 570.454 719.92 570.694 720.754 570.692C721.696 570.688 722.613 570.398 723.382 569.86C724.057 569.433 724.611 568.844 724.997 568.15C725.382 567.455 725.586 566.677 725.588 565.884V556.217C725.611 546.374 729.025 536.832 735.267 529.166C741.51 521.5 750.207 516.168 759.924 514.049C769.642 511.929 779.801 513.15 788.723 517.509C797.645 521.868 804.799 529.105 809.004 538.026C815.919 531.415 824.882 527.296 834.449 526.332V477.645C834.464 466.315 839.019 455.453 847.119 447.442C855.219 439.43 866.2 434.923 877.655 434.909C889.123 434.899 900.126 439.394 908.245 447.405C916.365 455.416 920.935 466.289 920.952 477.632V528.307C923.502 527.853 926.086 527.623 928.676 527.618C940.134 527.632 951.117 532.141 959.217 540.155C967.317 548.169 971.871 559.035 971.882 570.367V619.47C971.884 626.2 970.35 632.844 967.393 638.904C964.436 644.966 960.132 650.288 954.804 654.474L920.886 681.306V693.481C920.905 700.782 919.256 707.992 916.065 714.575C912.874 721.157 908.222 726.943 902.456 731.5L868.17 758.63V779.774C871.532 778.349 875.189 777.587 878.946 777.587C887.16 777.587 894.912 781.212 900.136 787.462L923.348 815.298C926.551 819.131 923.77 824.882 918.757 824.882H637.869C632.813 824.882 630.075 819.089 633.319 815.256L651.181 794.213C658.117 786.042 667.058 779.946 676.997 776.407ZM877.655 460.896C873.169 460.903 868.869 462.671 865.698 465.811C862.528 468.951 860.748 473.208 860.748 477.645V555.333C860.747 555.932 860.626 556.525 860.392 557.078C860.16 557.63 859.818 558.132 859.389 558.555C858.959 558.977 858.451 559.311 857.89 559.539C857.33 559.767 856.73 559.883 856.124 559.881C855.09 559.88 854.089 559.526 853.287 558.881L849.451 555.749C847.723 554.284 845.715 553.178 843.545 552.497C841.375 551.817 839.089 551.576 836.823 551.789C834.557 552.003 832.358 552.666 830.357 553.739C828.357 554.812 826.595 556.273 825.178 558.035C823.76 559.797 822.717 561.823 822.109 563.993C821.502 566.162 821.343 568.431 821.641 570.663C821.941 572.894 822.692 575.045 823.85 576.982C825.007 578.921 826.548 580.609 828.38 581.944L855.165 603.241C856.932 604.632 858.357 606.402 859.336 608.416C860.313 610.43 860.819 612.636 860.814 614.87V677.33C860.806 680.743 860.027 684.112 858.535 687.191C857.041 690.268 854.871 692.977 852.183 695.118L818.686 721.625C815.36 724.261 812.674 727.603 810.83 731.404C808.986 735.206 808.029 739.368 808.032 743.584V797.935C810.736 798.586 813.526 798.922 816.345 798.922H834.586C837.05 798.922 839.479 798.61 841.819 798.014V752.29C841.825 750.404 842.255 748.544 843.077 746.843C843.899 745.141 845.094 743.642 846.574 742.454L885.983 711.269C888.68 709.135 890.857 706.429 892.35 703.349C893.845 700.27 894.619 696.897 894.614 693.481V675.927C894.611 673.693 895.118 671.488 896.097 669.474C897.074 667.461 898.498 665.692 900.262 664.297L938.358 634.126C940.587 632.361 942.388 630.122 943.627 627.576C944.865 625.031 945.512 622.242 945.517 619.418V570.367C945.517 565.925 943.733 561.665 940.558 558.524C937.382 555.383 933.075 553.618 928.584 553.618C924.094 553.618 919.787 555.383 916.612 558.524C913.435 561.665 911.651 565.925 911.651 570.367V608.321C911.645 610.553 910.749 612.693 909.158 614.276C907.567 615.86 905.409 616.759 903.152 616.78C902.028 616.785 900.912 616.569 899.872 616.147C898.832 615.724 897.886 615.101 897.09 614.315C896.292 613.529 895.662 612.593 895.232 611.566C894.803 610.537 894.585 609.435 894.587 608.321V477.645C894.587 473.203 892.803 468.943 889.628 465.802C886.452 462.661 882.146 460.896 877.655 460.896ZM787.96 785.775V739.803C787.961 731.989 789.958 724.302 793.765 717.455C797.573 710.608 803.068 704.824 809.74 700.64L826.173 690.245C831.081 687.171 835.122 682.918 837.922 677.885C840.722 672.851 842.189 667.197 842.187 661.452V626.07C842.188 623.912 841.76 621.776 840.925 619.783C840.09 617.788 838.866 615.978 837.322 614.453C835.779 612.929 833.945 611.72 831.928 610.898C829.912 610.075 827.751 609.654 825.569 609.659C823.39 609.656 821.217 610.078 819.203 610.902C817.188 611.725 815.358 612.934 813.817 614.458C812.275 615.983 811.053 617.793 810.221 619.787C809.388 621.779 808.962 623.915 808.965 626.07V656.449C808.965 659.206 807.857 661.851 805.887 663.8C803.916 665.749 801.243 666.844 798.456 666.844C795.668 666.844 792.996 665.749 791.024 663.8C789.054 661.851 787.947 659.206 787.947 656.449V652.2C787.826 647.927 786.023 643.868 782.923 640.887C779.824 637.906 775.672 636.239 771.349 636.239C767.026 636.239 762.873 637.906 759.774 640.887C756.674 643.868 754.873 647.927 754.751 652.2V773.026C766.867 773.873 778.452 778.321 787.96 785.775ZM738.239 772.878V644.417C738.235 640.735 739.166 637.111 740.947 633.878C742.729 630.645 745.302 627.906 748.433 625.914L764.354 615.74C771.258 611.328 776.934 605.275 780.865 598.134C784.797 590.994 786.856 582.993 786.856 574.863V556.204C786.856 551.617 785.015 547.218 781.736 543.975C778.457 540.732 774.009 538.91 769.372 538.91C764.735 538.91 760.288 540.732 757.009 543.975C753.729 547.218 751.887 551.617 751.887 556.204V565.871C751.883 571.001 750.582 576.048 748.101 580.553C745.621 585.058 742.04 588.876 737.687 591.663L737.437 591.819C732.493 594.983 726.729 596.667 720.84 596.667C714.951 596.667 709.186 594.983 704.242 591.819L703.861 591.572C699.485 588.793 695.885 584.972 693.391 580.458C690.896 575.945 689.586 570.885 689.582 565.741V478.529C689.58 476.256 689.126 474.006 688.245 471.906C687.364 469.807 686.074 467.9 684.448 466.294C682.822 464.688 680.892 463.415 678.768 462.547C676.653 461.682 674.386 461.236 672.098 461.234C667.461 461.238 663.016 463.061 659.738 466.304C656.46 469.546 654.616 473.943 654.613 478.529V529.489C654.613 531.843 653.668 534.1 651.985 535.765C650.303 537.429 648.02 538.364 645.641 538.364C643.261 538.364 640.979 537.429 639.297 535.765C637.614 534.1 636.669 531.843 636.669 529.489V523.824C636.669 519.237 634.827 514.839 631.548 511.595C628.269 508.352 623.822 506.53 619.184 506.53C614.547 506.53 610.1 508.352 606.821 511.595C603.542 514.839 601.7 519.237 601.7 523.824V553.151C601.71 558.394 603.825 563.42 607.578 567.123C611.332 570.826 616.418 572.905 621.72 572.901H645.641C648.032 572.905 650.324 573.847 652.014 575.52C653.703 577.194 654.652 579.462 654.652 581.827C654.658 587.8 656.172 593.677 659.058 598.924C661.944 604.17 666.111 608.62 671.178 611.868L693.076 625.914C696.199 627.905 698.769 630.638 700.549 633.863C702.329 637.088 703.266 640.704 703.27 644.378V680.929C703.271 681.409 703.178 681.884 702.993 682.328C702.807 682.772 702.535 683.176 702.193 683.515C701.85 683.854 701.443 684.123 700.993 684.306C700.545 684.489 700.065 684.582 699.578 684.58C698.762 684.583 697.969 684.307 697.332 683.801L694.889 681.93C691.215 679.343 686.673 678.261 682.212 678.911C677.751 679.561 673.716 681.892 670.952 685.416C668.188 688.941 666.909 693.385 667.382 697.821C667.855 702.257 670.044 706.339 673.49 709.216L699.395 729.044C700.599 729.965 701.574 731.147 702.245 732.498C702.918 733.849 703.267 735.334 703.27 736.84V772.878H738.239Z" fill="url(#paint1_linear_7_91)"/>
<path d="M676.997 776.407V744.753L657.411 729.785C650.684 724.632 645.622 717.65 642.845 709.694C640.067 701.74 639.695 693.156 641.773 684.993C643.852 676.832 648.291 669.448 654.547 663.744C660.803 658.038 668.605 654.262 676.997 652.876V646.561L656.886 633.711C644.207 625.617 634.935 613.242 630.797 598.888H621.72C609.454 598.877 597.694 594.057 589.016 585.484C580.338 576.909 575.452 565.283 575.427 553.151V523.824C575.436 517.381 576.897 511.021 579.704 505.207C582.512 499.394 586.595 494.273 591.656 490.217C596.718 486.162 602.63 483.274 608.962 481.765C615.295 480.255 621.888 480.162 628.262 481.491V478.529C628.262 467.05 632.872 456.041 641.078 447.924C649.284 439.807 660.414 435.247 672.019 435.247C683.624 435.247 694.754 439.807 702.96 447.924C711.166 456.041 715.776 467.05 715.776 478.529V565.754C715.806 566.626 716.063 567.476 716.523 568.22C716.984 568.966 717.632 569.58 718.403 570.003C719.102 570.454 719.92 570.694 720.754 570.692C721.696 570.688 722.613 570.398 723.382 569.86C724.057 569.433 724.611 568.844 724.997 568.15C725.382 567.455 725.586 566.677 725.588 565.884V556.217C725.611 546.374 729.025 536.832 735.267 529.166C741.51 521.5 750.207 516.168 759.924 514.049C769.642 511.929 779.801 513.15 788.723 517.509C797.645 521.868 804.799 529.105 809.004 538.026C815.919 531.415 824.882 527.296 834.449 526.332V477.645C834.464 466.315 839.019 455.453 847.119 447.442C855.219 439.43 866.2 434.923 877.655 434.909C889.123 434.899 900.126 439.394 908.245 447.405C916.365 455.416 920.935 466.289 920.952 477.632V528.307C923.502 527.853 926.086 527.623 928.676 527.618C940.134 527.632 951.117 532.141 959.217 540.155C967.317 548.169 971.871 559.035 971.882 570.367V619.47C971.884 626.2 970.35 632.844 967.393 638.904C964.436 644.966 960.132 650.288 954.804 654.474L920.886 681.306V693.481C920.905 700.782 919.256 707.992 916.065 714.575C912.874 721.157 908.222 726.943 902.456 731.5L868.17 758.63V779.774C871.532 778.349 875.189 777.587 878.946 777.587C887.16 777.587 894.912 781.212 900.136 787.462L923.348 815.298C926.551 819.131 923.77 824.882 918.757 824.882H637.869C632.813 824.882 630.075 819.089 633.319 815.256L651.181 794.213C658.117 786.042 667.058 779.946 676.997 776.407ZM877.655 460.896C873.169 460.903 868.869 462.671 865.698 465.811C862.528 468.951 860.748 473.208 860.748 477.645V555.333C860.747 555.932 860.626 556.525 860.392 557.078C860.16 557.63 859.818 558.132 859.389 558.555C858.959 558.977 858.451 559.311 857.89 559.539C857.33 559.767 856.73 559.883 856.124 559.881C855.09 559.88 854.089 559.526 853.287 558.881L849.451 555.749C847.723 554.284 845.715 553.178 843.545 552.497C841.375 551.817 839.089 551.576 836.823 551.789C834.557 552.003 832.358 552.666 830.357 553.739C828.357 554.812 826.595 556.273 825.178 558.035C823.76 559.797 822.717 561.823 822.109 563.993C821.502 566.162 821.343 568.431 821.641 570.663C821.941 572.894 822.692 575.045 823.85 576.982C825.007 578.921 826.548 580.609 828.38 581.944L855.165 603.241C856.932 604.632 858.357 606.402 859.336 608.416C860.313 610.43 860.819 612.636 860.814 614.87V677.33C860.806 680.743 860.027 684.112 858.535 687.191C857.041 690.268 854.871 692.977 852.183 695.118L818.686 721.625C815.36 724.261 812.674 727.603 810.83 731.404C808.986 735.206 808.029 739.368 808.032 743.584V797.935C810.736 798.586 813.526 798.922 816.345 798.922H834.586C837.05 798.922 839.479 798.61 841.819 798.014V752.29C841.825 750.404 842.255 748.544 843.077 746.843C843.899 745.141 845.094 743.642 846.574 742.454L885.983 711.269C888.68 709.135 890.857 706.429 892.35 703.349C893.845 700.27 894.619 696.897 894.614 693.481V675.927C894.611 673.693 895.118 671.488 896.097 669.474C897.074 667.461 898.498 665.692 900.262 664.297L938.358 634.126C940.587 632.361 942.388 630.122 943.627 627.576C944.865 625.031 945.512 622.242 945.517 619.418V570.367C945.517 565.925 943.733 561.665 940.558 558.524C937.382 555.383 933.075 553.618 928.584 553.618C924.094 553.618 919.787 555.383 916.612 558.524C913.435 561.665 911.651 565.925 911.651 570.367V608.321C911.645 610.553 910.749 612.693 909.158 614.276C907.567 615.86 905.409 616.759 903.152 616.78C902.028 616.785 900.912 616.569 899.872 616.147C898.832 615.724 897.886 615.101 897.09 614.315C896.292 613.529 895.662 612.593 895.232 611.566C894.803 610.537 894.585 609.435 894.587 608.321V477.645C894.587 473.203 892.803 468.943 889.628 465.802C886.452 462.661 882.146 460.896 877.655 460.896ZM787.96 785.775V739.803C787.961 731.989 789.958 724.302 793.765 717.455C797.573 710.608 803.068 704.824 809.74 700.64L826.173 690.245C831.081 687.171 835.122 682.918 837.922 677.885C840.722 672.851 842.189 667.197 842.187 661.452V626.07C842.188 623.912 841.76 621.776 840.925 619.783C840.09 617.788 838.866 615.978 837.322 614.453C835.779 612.929 833.945 611.72 831.928 610.898C829.912 610.075 827.751 609.654 825.569 609.659C823.39 609.656 821.217 610.078 819.203 610.902C817.188 611.725 815.358 612.934 813.817 614.458C812.275 615.983 811.053 617.793 810.221 619.787C809.388 621.779 808.962 623.915 808.965 626.07V656.449C808.965 659.206 807.857 661.851 805.887 663.8C803.916 665.749 801.243 666.844 798.456 666.844C795.668 666.844 792.996 665.749 791.024 663.8C789.054 661.851 787.947 659.206 787.947 656.449V652.2C787.826 647.927 786.023 643.868 782.923 640.887C779.824 637.906 775.672 636.239 771.349 636.239C767.026 636.239 762.873 637.906 759.774 640.887C756.674 643.868 754.873 647.927 754.751 652.2V773.026C766.867 773.873 778.452 778.321 787.96 785.775ZM738.239 772.878V644.417C738.235 640.735 739.166 637.111 740.947 633.878C742.729 630.645 745.302 627.906 748.433 625.914L764.354 615.74C771.258 611.328 776.934 605.275 780.865 598.134C784.797 590.994 786.856 582.993 786.856 574.863V556.204C786.856 551.617 785.015 547.218 781.736 543.975C778.457 540.732 774.009 538.91 769.372 538.91C764.735 538.91 760.288 540.732 757.009 543.975C753.729 547.218 751.887 551.617 751.887 556.204V565.871C751.883 571.001 750.582 576.048 748.101 580.553C745.621 585.058 742.04 588.876 737.687 591.663L737.437 591.819C732.493 594.983 726.729 596.667 720.84 596.667C714.951 596.667 709.186 594.983 704.242 591.819L703.861 591.572C699.485 588.793 695.885 584.972 693.391 580.458C690.896 575.945 689.586 570.885 689.582 565.741V478.529C689.58 476.256 689.126 474.006 688.245 471.906C687.364 469.807 686.074 467.9 684.448 466.294C682.822 464.688 680.892 463.415 678.768 462.547C676.653 461.682 674.386 461.236 672.098 461.234C667.461 461.238 663.016 463.061 659.738 466.304C656.46 469.546 654.616 473.943 654.613 478.529V529.489C654.613 531.843 653.668 534.1 651.985 535.765C650.303 537.429 648.02 538.364 645.641 538.364C643.261 538.364 640.979 537.429 639.297 535.765C637.614 534.1 636.669 531.843 636.669 529.489V523.824C636.669 519.237 634.827 514.839 631.548 511.595C628.269 508.352 623.822 506.53 619.184 506.53C614.547 506.53 610.1 508.352 606.821 511.595C603.542 514.839 601.7 519.237 601.7 523.824V553.151C601.71 558.394 603.825 563.42 607.578 567.123C611.332 570.826 616.418 572.905 621.72 572.901H645.641C648.032 572.905 650.324 573.847 652.014 575.52C653.703 577.194 654.652 579.462 654.652 581.827C654.658 587.8 656.172 593.677 659.058 598.924C661.944 604.17 666.111 608.62 671.178 611.868L693.076 625.914C696.199 627.905 698.769 630.638 700.549 633.863C702.329 637.088 703.266 640.704 703.27 644.378V680.929C703.271 681.409 703.178 681.884 702.993 682.328C702.807 682.772 702.535 683.176 702.193 683.515C701.85 683.854 701.443 684.123 700.993 684.306C700.545 684.489 700.065 684.582 699.578 684.58C698.762 684.583 697.969 684.307 697.332 683.801L694.889 681.93C691.215 679.343 686.673 678.261 682.212 678.911C677.751 679.561 673.716 681.892 670.952 685.416C668.188 688.941 666.909 693.385 667.382 697.821C667.855 702.257 670.044 706.339 673.49 709.216L699.395 729.044C700.599 729.965 701.574 731.147 702.245 732.498C702.918 733.849 703.267 735.334 703.27 736.84V772.878H738.239Z" stroke="white" stroke-width="20" mask="url(#path-6-outside-1_7_91)"/>
<path d="M942.023 715.767C955.615 715.768 966.727 726.681 966.727 740.258C966.727 753.834 955.615 764.748 942.023 764.748C928.431 764.748 917.318 753.834 917.318 740.258C917.318 726.681 928.431 715.767 942.023 715.767ZM583.056 716.294C594.282 716.294 603.475 725.309 603.475 736.546C603.475 747.781 594.281 756.796 583.056 756.796C571.831 756.796 562.638 747.781 562.637 736.546C562.637 725.309 571.831 716.294 583.056 716.294ZM981.432 728.761C987.769 728.761 993 733.858 993 740.258C993 746.658 987.769 751.755 981.432 751.755C975.096 751.755 969.864 746.658 969.864 740.258C969.864 733.857 975.096 728.761 981.432 728.761ZM621.898 709.081C630.145 709.081 636.925 715.708 636.925 723.998C636.924 732.287 630.146 738.916 621.898 738.916C613.651 738.916 606.872 732.287 606.872 723.998C606.872 715.708 613.651 709.081 621.898 709.081ZM965.011 689.831C973.162 689.831 979.864 696.381 979.864 704.576C979.864 712.771 973.162 719.321 965.011 719.321C956.861 719.321 950.159 712.771 950.159 704.576C950.159 696.381 956.861 689.831 965.011 689.831ZM608.332 644.243C624.652 644.243 637.977 657.343 637.977 673.619C637.977 689.896 624.652 702.996 608.332 702.996C592.011 702.996 578.687 689.896 578.687 673.619C578.687 657.344 592.012 644.243 608.332 644.243Z" fill="url(#paint2_linear_7_91)" stroke="white" stroke-width="10"/>
</g>
<path d="M563.5 659.5L619.5 587.5L630 598L638 643L640 664L563.5 659.5Z" fill="white"/>
<path d="M535 727C557.5 729 604 733.3 610 734.5L616.5 741L605.5 756.5L568.5 764L535 727Z" fill="white"/>
<path d="M334 404.501C367.239 404.501 394.819 410.232 416.425 422.054C437.828 433.765 453.775 449.438 464.02 469.108C474.146 488.551 479.189 509.794 479.189 532.75C479.189 550.798 476.38 567.551 470.703 582.96C465.396 598.03 456.108 613.687 443.036 629.928L443.018 629.952L442.998 629.975C429.942 645.801 411.648 664.473 388.198 685.969L388.19 685.977L337.551 732.191H486.198V827.472H181.803V746.144L183.358 744.666L290.251 643.029L290.262 643.019L290.272 643.009C309.708 624.739 324.806 609.832 335.603 598.264L335.607 598.26C346.716 586.385 354.33 575.903 358.699 566.801L358.734 566.729L358.771 566.659C363.465 557.631 365.8 548.102 365.8 538.007C365.8 525.634 362.541 516.959 356.75 511.168L356.703 511.121L356.657 511.072C350.903 504.999 341.921 501.535 328.744 501.535C321.146 501.535 314.573 503.587 308.846 507.629L308.764 507.687L308.679 507.742C303.064 511.375 298.373 517.128 294.778 525.398L294.761 525.436L294.744 525.473C291.212 533.242 289.142 543.434 288.765 556.261L288.621 561.115H180.52L180.636 556.001C181.429 521.13 188.767 492.314 203.029 469.902C216.934 448.05 235.217 431.781 257.831 421.222L258.911 420.723C281.81 409.889 306.865 404.502 334 404.501Z" fill="#2A2A2A" stroke="white" stroke-width="10"/>
<path d="M685.977 518.404L679.865 526.432L581.368 655.83C586.093 655.335 590.925 655.088 595.863 655.088C620.385 655.088 643.001 660.522 663.623 671.439C684.314 682.003 700.936 697.643 713.454 718.238H713.453C726.106 738.663 732.289 763.565 732.289 792.681C732.289 822.748 724.859 849.239 709.849 871.958L709.837 871.974L709.825 871.992C694.916 894.154 675.157 911.28 650.64 923.338C626.149 935.382 599.296 941.375 570.162 941.375C539.087 941.375 511.207 934.994 486.646 922.11C462.154 909.262 442.608 891.545 428.104 868.984L428.076 868.941L428.05 868.897C413.893 845.842 406.866 819.609 406.866 790.345C406.866 769.035 411.09 747.218 419.451 724.921L419.479 724.848C428.245 702.535 441.732 679.174 459.837 654.771L459.84 654.767L559.724 520.421L561.224 518.404H685.977ZM570.162 742.191C559.599 742.191 550.535 744.365 542.822 748.558C535.51 752.744 529.752 758.653 525.515 766.401C521.688 773.716 519.671 782.614 519.671 793.266C519.671 803.887 521.676 813.002 525.531 820.745C529.764 828.471 535.51 834.366 542.804 838.546C550.52 842.746 559.59 844.926 570.162 844.926C580.758 844.925 589.602 842.738 596.887 838.575C604.192 834.401 609.737 828.52 613.587 820.82C617.466 813.061 619.484 803.921 619.484 793.266C619.484 782.603 617.464 773.699 613.63 766.38L613.608 766.339L613.587 766.297C609.737 758.597 604.192 752.716 596.887 748.542C589.602 744.379 580.758 742.191 570.162 742.191Z" fill="#2A2A2A" stroke="white" stroke-width="10"/>
<path d="M278.12 763.458C270.464 763.458 263.73 766.576 258.937 772.449H258.936C254.126 778.34 252.121 786.069 251.354 793.085C250.747 798.632 250.875 804.114 251.226 808.624C228.474 819.847 208.187 836.546 191.992 857.798C176.201 837.115 156.288 820.418 133.557 809.01L133.555 809.009C131.134 807.795 128.394 807.375 125.721 807.813C123.048 808.251 120.587 809.522 118.677 811.436C116.767 813.348 115.502 815.809 115.049 818.47C114.601 821.1 114.966 823.807 116.096 826.225L116.095 826.226C116.133 826.31 122.754 840.72 126.042 861.588C129.283 882.155 129.224 908.581 116.876 933.729L116.279 934.925L116.277 934.928C115.043 937.365 114.6 940.13 115.007 942.83C115.413 945.527 116.648 948.035 118.549 949.996L118.548 949.997C120.451 951.965 122.928 953.283 125.631 953.747C128.334 954.211 131.11 953.794 133.56 952.563V952.562C156.294 941.151 176.204 924.46 191.997 903.769C208.18 924.999 228.442 941.689 251.167 952.917C250.849 957.424 250.77 962.82 251.412 968.255C252.222 975.114 254.242 982.608 258.93 988.356L258.931 988.357C263.73 994.238 270.466 997.347 278.116 997.347C329.61 997.347 360.002 971.377 370.142 960.944C406.533 948.64 438.279 923.059 459.716 887.575L459.717 887.574L462.258 883.363L463.817 880.781L462.259 878.198L459.718 873.983L459.717 873.981C438.497 838.842 407.161 813.409 371.215 800.962C362.21 791.356 331.451 763.458 278.12 763.458ZM276.979 963.022C285.809 965.592 294.887 967.398 304.133 968.376C296.52 970.125 288.009 971.217 278.574 971.251C278.156 970.434 277.649 968.9 277.304 966.442C277.154 965.373 277.047 964.224 276.979 963.022ZM320.332 818.452C330.371 818.468 340.368 819.653 350.127 821.98C329.062 857.738 329.062 903.822 350.132 939.586C340.444 941.897 330.471 943.123 320.332 943.123C275.653 943.123 233.936 920.083 207.367 880.78C233.946 841.495 275.658 818.453 320.332 818.452ZM375.165 830.67C397.956 841.237 418.104 858.342 433.292 880.787C418.107 903.229 397.956 920.341 375.166 930.908C354.948 901.268 354.943 860.298 375.165 830.67ZM306.885 842.347C304.844 842.071 298.727 841.382 291.773 841.917C285.221 842.421 276.957 844.076 270.941 849.131L270.366 849.631L270.363 849.633C265.733 853.804 263.237 859.402 263.164 865.647V866.263C263.236 871.061 264.708 875.523 267.393 879.38C266.782 880.311 266.234 881.285 265.756 882.296L265.534 882.776L265.519 882.812C261.476 892.052 263.901 902.808 271.04 910.298L271.039 910.299C276.122 915.633 284.22 919.819 294.261 919.819C299.188 919.819 304.497 918.81 310.067 916.514C313.256 915.2 315.778 912.666 317.101 909.491C318.422 906.318 318.447 902.746 317.171 899.555C315.894 896.361 313.41 893.789 310.241 892.43C307.94 891.442 305.424 891.158 302.997 891.578C304.964 890.729 306.704 889.398 308.046 887.688C310.041 885.148 311.022 881.957 310.815 878.737C310.609 875.518 309.227 872.477 306.918 870.216C306.163 869.477 305.326 868.839 304.43 868.311C307.538 868.488 310.611 867.53 313.08 865.604C315.793 863.488 317.552 860.383 317.998 856.979L318 856.964C318.436 853.56 317.526 850.111 315.454 847.37C313.38 844.626 310.304 842.81 306.888 842.347H306.885ZM150.704 851.571C160.435 859.981 169.14 869.79 176.588 880.785C169.415 891.384 161.064 900.88 151.752 909.086C155.441 887.706 153.8 867.608 150.704 851.571ZM300.063 892.449C295.59 894.232 292.679 893.82 291.053 893.108C291.696 892.957 292.485 892.818 293.444 892.726C295.606 892.883 297.779 892.801 299.924 892.475L299.951 892.471L299.979 892.466C300.008 892.461 300.035 892.454 300.063 892.449ZM393.383 861.692C389.937 861.706 386.654 863.107 384.248 865.563C381.852 868.011 380.52 871.305 380.521 874.723L380.522 875.041C380.555 876.634 380.877 878.209 381.475 879.688C382.112 881.266 383.051 882.706 384.241 883.924C385.432 885.142 386.852 886.113 388.421 886.78C389.99 887.447 391.677 887.795 393.383 887.802H393.402C396.857 887.802 400.155 886.407 402.575 883.951C404.993 881.498 406.338 878.186 406.338 874.747C406.338 871.308 404.993 867.996 402.575 865.542C400.155 863.086 396.857 861.692 393.402 861.692H393.383ZM278.582 789.562C288.968 789.6 298.238 790.915 306.421 792.984C296.449 793.888 286.58 795.757 276.948 798.566C277.006 797.197 277.11 795.883 277.27 794.666C277.614 792.038 278.145 790.409 278.582 789.562Z" fill="url(#paint3_linear_7_91)" stroke="white" stroke-width="10"/>
<path d="M699.554 182.838L686.825 161.747C686.359 160.97 685.652 160.364 684.812 160.019C683.971 159.673 683.041 159.606 682.158 159.827L672.961 162.111C672.729 160.268 672.388 158.439 671.939 156.636L688.771 151.044C689.3 150.869 689.788 150.593 690.209 150.23C690.63 149.867 690.974 149.425 691.223 148.93C691.472 148.434 691.621 147.895 691.66 147.342C691.699 146.79 691.628 146.235 691.452 145.71L687.916 135.164C688.346 134.857 688.758 134.527 689.153 134.175C691.302 131.779 692.799 128.875 693.501 125.741C694.203 122.606 694.087 119.346 693.163 116.269C691.569 109.497 688.103 103.304 683.157 98.3862C681.133 96.3758 678.721 94.7937 676.066 93.7352C673.41 92.6768 670.567 92.1639 667.707 92.2276C666.588 92.2591 665.526 92.7285 664.754 93.5338C663.981 94.3391 663.559 95.4152 663.58 96.528L663.829 109.108L651.146 109.199C650.586 109.203 650.033 109.317 649.518 109.534C649.002 109.751 648.536 110.068 648.144 110.465C647.752 110.863 647.444 111.333 647.236 111.85C647.028 112.366 646.925 112.919 646.932 113.475C646.983 119.008 649.218 124.3 653.156 128.21C658.098 133.133 664.329 136.58 671.141 138.162C673.024 138.578 674.947 138.794 676.876 138.805C677.958 138.799 679.038 138.71 680.107 138.539L682.063 144.379L666.941 149.403C664.798 147.876 662.229 147.051 659.592 147.045H657.731V142.826C657.731 141.708 657.284 140.635 656.489 139.844C655.693 139.053 654.614 138.608 653.489 138.608C652.363 138.608 651.284 139.053 650.489 139.844C649.693 140.635 649.246 141.708 649.246 142.826V147.045H632.275V142.826C632.275 141.708 631.828 140.635 631.032 139.844C630.237 139.053 629.157 138.608 628.032 138.608C626.907 138.608 625.828 139.053 625.032 139.844C624.236 140.635 623.789 141.708 623.789 142.826V147.045H621.929C619.292 147.051 616.722 147.876 614.579 149.404L599.456 144.38L601.412 138.54C602.481 138.711 603.561 138.8 604.643 138.806C606.572 138.795 608.495 138.579 610.378 138.163C617.189 136.581 623.42 133.135 628.364 128.215C632.301 124.303 634.536 119.01 634.587 113.476C634.594 112.92 634.491 112.367 634.283 111.851C634.075 111.334 633.767 110.864 633.375 110.466C632.984 110.069 632.517 109.752 632.001 109.535C631.486 109.318 630.933 109.204 630.373 109.2L617.691 109.109L617.939 96.5289C617.96 95.416 617.538 94.34 616.765 93.5347C615.993 92.7293 614.931 92.2599 613.812 92.2284C610.955 92.1826 608.118 92.7037 605.465 93.7612C602.813 94.8186 600.4 96.3912 598.366 98.387C593.417 103.303 589.95 109.497 588.356 116.269C587.432 119.346 587.316 122.607 588.018 125.741C588.72 128.876 590.217 131.779 592.367 134.176C592.761 134.527 593.173 134.857 593.603 135.165L590.067 145.71C589.891 146.236 589.82 146.79 589.859 147.343C589.898 147.895 590.047 148.435 590.296 148.93C590.545 149.425 590.889 149.867 591.31 150.23C591.731 150.593 592.22 150.87 592.748 151.045L609.581 156.637C609.132 158.44 608.79 160.268 608.558 162.112L599.361 159.826C598.479 159.605 597.548 159.673 596.708 160.019C595.868 160.365 595.161 160.97 594.694 161.746L581.965 182.837C581.674 183.312 581.48 183.84 581.394 184.39C581.309 184.94 581.334 185.501 581.468 186.041C581.601 186.582 581.841 187.09 582.174 187.538C582.506 187.986 582.924 188.364 583.404 188.65C583.884 188.937 584.416 189.126 584.97 189.207C585.524 189.288 586.088 189.259 586.631 189.122C587.173 188.985 587.683 188.743 588.131 188.41C588.579 188.076 588.956 187.657 589.241 187.178L600.353 168.765L608.317 170.743C608.426 172.698 608.657 174.645 609.008 176.572H606.819C606.031 176.572 605.258 176.79 604.588 177.202C603.918 177.614 603.376 178.203 603.023 178.904L594.538 195.777C594.035 196.777 593.952 197.936 594.308 198.997C594.663 200.059 595.429 200.936 596.435 201.437C597.442 201.937 598.607 202.019 599.675 201.666C600.742 201.312 601.625 200.551 602.128 199.55L609.441 185.009H612.454C613.645 186.336 615.105 187.398 616.738 188.125C618.371 188.852 620.14 189.227 621.929 189.227H659.592C661.381 189.227 663.15 188.852 664.782 188.125C666.415 187.398 667.875 186.336 669.066 185.009H672.079L679.392 199.55C679.641 200.046 679.986 200.488 680.407 200.851C680.828 201.214 681.317 201.49 681.845 201.666C682.374 201.841 682.932 201.911 683.488 201.871C684.044 201.832 684.586 201.684 685.085 201.437C685.583 201.189 686.027 200.846 686.392 200.427C686.758 200.009 687.036 199.523 687.212 198.997C687.388 198.472 687.459 197.917 687.419 197.364C687.38 196.812 687.231 196.272 686.982 195.777L678.496 178.904C678.144 178.203 677.603 177.614 676.932 177.202C676.262 176.79 675.49 176.572 674.702 176.572H672.512C672.863 174.646 673.094 172.699 673.202 170.744L681.166 168.766L692.278 187.179C692.861 188.13 693.799 188.813 694.887 189.079C695.974 189.345 697.123 189.172 698.083 188.599C699.044 188.026 699.737 187.099 700.013 186.02C700.288 184.941 700.123 183.797 699.554 182.838ZM672.945 129.919C667.718 128.69 662.941 126.031 659.156 122.242C657.833 120.931 656.819 119.346 656.187 117.599L668.185 117.517C668.747 117.513 669.302 117.399 669.819 117.18C670.336 116.961 670.804 116.642 671.196 116.242C671.588 115.842 671.896 115.369 672.102 114.849C672.309 114.33 672.409 113.775 672.398 113.217L672.163 101.287C674.043 101.909 675.753 102.959 677.155 104.352C680.963 108.116 683.635 112.865 684.87 118.061C685.439 119.763 685.58 121.579 685.281 123.348C684.982 125.117 684.252 126.787 683.155 128.211C681.72 129.299 680.041 130.023 678.262 130.32C676.484 130.618 674.659 130.48 672.945 129.919ZM596.651 118.061C597.885 112.864 600.559 108.115 604.37 104.352C605.77 102.958 607.478 101.908 609.358 101.287L609.122 113.217C609.111 113.775 609.212 114.33 609.419 114.849C609.625 115.369 609.933 115.842 610.325 116.242C610.717 116.642 611.185 116.961 611.702 117.18C612.219 117.399 612.774 117.513 613.336 117.517L625.335 117.601C624.702 119.349 623.687 120.936 622.365 122.248C618.579 126.035 613.803 128.694 608.576 129.922C606.863 130.484 605.038 130.622 603.259 130.324C601.48 130.027 599.801 129.302 598.367 128.213C597.269 126.789 596.539 125.119 596.24 123.349C595.941 121.579 596.082 119.764 596.651 118.061ZM659.592 180.791H621.929C620.983 180.791 620.064 180.477 619.317 179.899C618.571 179.321 618.041 178.511 617.811 177.598C616.257 171.386 616.257 164.89 617.811 158.678C618.04 157.764 618.57 156.954 619.316 156.374C620.063 155.795 620.982 155.481 621.929 155.481H659.592C660.538 155.48 661.457 155.794 662.203 156.373C662.95 156.951 663.48 157.761 663.71 158.674C665.264 164.886 665.264 171.382 663.71 177.594C663.481 178.507 662.951 179.318 662.205 179.897C661.458 180.477 660.539 180.791 659.592 180.791Z" fill="url(#paint4_linear_7_91)"/>
<path d="M1189.27 371.039C1174.89 371.039 1162.05 367.546 1150.75 360.561C1139.65 353.576 1130.92 344.023 1124.55 331.901C1118.18 319.78 1115 305.912 1115 290.299C1115 275.301 1118.18 261.947 1124.55 250.237C1130.92 238.526 1139.65 229.384 1150.75 222.81C1161.84 216.03 1174.48 212.64 1188.65 212.64C1202.62 212.64 1215.05 215.722 1225.94 221.885C1237.03 228.048 1245.66 236.574 1251.83 247.463C1257.99 258.352 1260.87 270.781 1260.46 284.752C1260.46 287.011 1260.35 289.374 1260.15 291.839C1259.94 294.305 1259.74 296.976 1259.53 299.852H1140.27C1140.68 309.508 1143.04 318.034 1147.36 325.43C1151.67 332.826 1157.32 338.681 1164.31 342.995C1171.5 347.104 1179.61 349.159 1188.65 349.159C1200.57 349.159 1210.64 346.899 1218.85 342.379C1227.28 337.859 1233.34 331.388 1237.03 322.964L1257.07 330.977C1250.9 343.92 1241.97 353.884 1230.26 360.869C1218.54 367.649 1204.88 371.039 1189.27 371.039ZM1235.19 279.821C1235.39 270.987 1233.44 263.18 1229.33 256.4C1225.43 249.62 1219.88 244.279 1212.69 240.375C1205.5 236.472 1197.18 234.52 1187.73 234.52C1179.51 234.52 1172.01 236.472 1165.23 240.375C1158.45 244.279 1152.8 249.723 1148.28 256.708C1143.97 263.488 1141.4 271.192 1140.58 279.821H1235.19Z" fill="black"/>
<path d="M1392.8 245.922L1390.33 246.23V147H1413.45V368.882H1392.18L1390.64 340.222C1385.92 348.851 1378.83 356.144 1369.38 362.102C1360.13 368.06 1348.63 371.039 1334.86 371.039C1320.69 371.039 1308.26 367.854 1297.58 361.486C1287.1 354.911 1278.88 345.666 1272.92 333.75C1267.17 321.834 1264.29 307.864 1264.29 291.839C1264.29 275.815 1267.17 261.947 1272.92 250.237C1278.88 238.321 1287.1 229.076 1297.58 222.501C1308.26 215.927 1320.69 212.64 1334.86 212.64C1349.45 212.64 1361.57 215.824 1371.23 222.193C1380.88 228.562 1388.07 236.472 1392.8 245.922ZM1289.26 291.839C1289.26 309.508 1293.77 323.581 1302.81 334.059C1311.85 344.331 1324.18 349.467 1339.79 349.467C1349.45 349.467 1358.08 347.207 1365.68 342.687C1373.28 338.167 1379.24 331.593 1383.55 322.964C1388.07 314.336 1390.33 303.961 1390.33 291.839C1390.33 279.718 1388.07 269.446 1383.55 261.022C1379.24 252.394 1373.28 245.819 1365.68 241.3C1358.08 236.574 1349.45 234.212 1339.79 234.212C1324.39 234.212 1312.06 239.451 1302.81 249.928C1293.77 260.201 1289.26 274.171 1289.26 291.839Z" fill="black"/>
<path d="M1440.7 214.797H1463.51V368.882H1440.7V214.797ZM1452.41 183.98C1447.69 183.98 1443.78 182.439 1440.7 179.358C1437.62 176.276 1436.08 172.475 1436.08 167.955C1436.08 163.23 1437.62 159.327 1440.7 156.245C1443.78 153.163 1447.69 151.623 1452.41 151.623C1456.73 151.623 1460.43 153.163 1463.51 156.245C1466.79 159.327 1468.44 163.23 1468.44 167.955C1468.44 172.475 1466.79 176.276 1463.51 179.358C1460.43 182.439 1456.73 183.98 1452.41 183.98Z" fill="black"/>
<path d="M1562.37 385.215C1569.56 385.009 1575.83 385.831 1581.17 387.68C1586.51 389.734 1590.72 392.816 1593.81 396.925C1596.89 401.034 1598.43 406.067 1598.43 412.025C1598.43 417.572 1596.99 422.4 1594.11 426.509C1591.24 430.824 1587.23 434.111 1582.09 436.371C1577.16 438.631 1571.41 439.76 1564.84 439.76H1535.25V425.277H1560.83C1567.2 425.277 1571.93 424.147 1575.01 421.887C1578.09 419.832 1579.63 416.545 1579.63 412.025C1579.63 407.711 1578.09 404.424 1575.01 402.164C1571.93 400.109 1567.2 399.082 1560.83 399.082H1546.96V365.8H1562.37V385.215ZM1556.52 371.039C1541.52 371.039 1528.37 367.752 1517.07 361.177C1505.77 354.603 1496.94 345.461 1490.57 333.75C1484.41 321.834 1481.32 308.07 1481.32 292.456C1481.32 276.636 1484.41 262.769 1490.57 250.853C1496.94 238.732 1505.77 229.384 1517.07 222.81C1528.37 216.03 1541.52 212.64 1556.52 212.64C1572.34 212.64 1586.2 216.338 1598.12 223.734C1610.04 230.925 1618.66 240.992 1624.01 253.935L1602.74 261.331C1599.66 253.113 1594.01 246.641 1585.79 241.916C1577.78 236.985 1568.43 234.52 1557.75 234.52C1547.27 234.52 1538.13 236.883 1530.32 241.608C1522.72 246.333 1516.76 253.01 1512.45 261.639C1508.34 270.268 1506.29 280.437 1506.29 292.148C1506.29 309.405 1510.91 323.273 1520.15 333.75C1529.4 344.023 1541.72 349.159 1557.13 349.159C1567.61 349.159 1576.96 346.796 1585.18 342.071C1593.39 337.346 1599.46 330.977 1603.36 322.964L1624.31 330.361C1618.77 343.098 1610.04 353.062 1598.12 360.253C1586.2 367.443 1572.34 371.039 1556.52 371.039Z" fill="black"/>
<path d="M1655.34 197.232C1656.77 188.397 1659.75 181.72 1664.27 177.201C1668.79 172.681 1674.44 170.421 1681.22 170.421C1686.15 170.421 1690.26 171.551 1693.55 173.811C1696.84 175.865 1699.92 178.022 1702.79 180.282C1705.67 182.337 1708.96 183.364 1712.66 183.364C1715.74 183.364 1718.41 182.542 1720.67 180.899C1723.13 179.05 1724.57 176.071 1724.98 171.962H1738.23C1737 180.796 1734.02 187.473 1729.3 191.993C1724.57 196.307 1718.82 198.464 1712.04 198.464C1706.9 198.464 1702.69 197.437 1699.4 195.383C1696.12 193.123 1693.03 190.965 1690.16 188.911C1687.49 186.651 1684.3 185.521 1680.61 185.521C1677.32 185.521 1674.65 186.446 1672.59 188.295C1670.54 190.144 1669.2 193.123 1668.59 197.232H1655.34ZM1733.92 368.882L1732.07 341.146C1727.76 350.597 1721.39 357.993 1712.96 363.335C1704.54 368.471 1693.86 371.039 1680.91 371.039C1669.82 371.039 1660.37 369.293 1652.56 365.8C1644.76 362.307 1638.69 357.377 1634.38 351.008C1630.27 344.434 1628.22 336.729 1628.22 327.895C1628.22 314.952 1633.04 304.372 1642.7 296.154C1652.36 287.73 1666.33 282.594 1684.61 280.745L1732.07 275.506V263.18C1732.07 254.551 1728.89 247.669 1722.52 242.532C1716.15 237.191 1707.52 234.52 1696.63 234.52C1685.95 234.52 1677.01 236.985 1669.82 241.916C1662.83 246.847 1658.01 253.935 1655.34 263.18L1634.38 255.784C1638.49 242.224 1645.99 231.644 1656.88 224.042C1667.97 216.441 1681.43 212.64 1697.25 212.64C1715.53 212.64 1729.71 217.365 1739.77 226.816C1750.05 236.061 1755.18 248.696 1755.18 264.721V368.882H1733.92ZM1732.07 295.229L1684.3 300.776C1674.03 302.009 1666.22 304.885 1660.88 309.405C1655.54 313.719 1652.87 319.472 1652.87 326.662C1652.87 333.853 1655.44 339.606 1660.57 343.92C1665.92 348.234 1673.52 350.391 1683.38 350.391C1694.68 350.391 1703.92 348.132 1711.11 343.612C1718.3 339.092 1723.54 333.031 1726.83 325.43C1730.32 317.623 1732.07 309.2 1732.07 300.16V295.229Z" fill="black"/>
<path d="M1842.18 371.039C1827.6 371.039 1814.55 367.854 1803.05 361.486C1791.54 355.117 1782.5 346.077 1775.93 334.367C1769.35 322.451 1766.07 308.378 1766.07 292.148C1766.07 275.712 1769.35 261.536 1775.93 249.62C1782.71 237.704 1791.85 228.562 1803.36 222.193C1815.07 215.824 1828.21 212.64 1842.8 212.64C1857.39 212.64 1870.43 215.824 1881.94 222.193C1893.65 228.562 1902.79 237.704 1909.37 249.62C1916.15 261.331 1919.54 275.301 1919.54 291.531C1919.54 307.967 1916.15 322.143 1909.37 334.059C1902.59 345.974 1893.34 355.117 1881.63 361.486C1869.92 367.854 1856.77 371.039 1842.18 371.039ZM1841.88 349.159C1850.92 349.159 1859.44 347.207 1867.45 343.304C1875.47 339.195 1881.94 332.929 1886.87 324.505C1892.01 315.877 1894.57 304.988 1894.57 291.839C1894.57 278.485 1892.11 267.597 1887.18 259.173C1882.25 250.75 1875.78 244.587 1867.76 240.683C1859.96 236.574 1851.53 234.52 1842.49 234.52C1833.45 234.52 1825.03 236.574 1817.22 240.683C1809.42 244.587 1803.05 250.853 1798.12 259.482C1793.39 267.905 1791.03 278.691 1791.03 291.839C1791.03 305.193 1793.39 316.082 1798.12 324.505C1802.84 332.929 1809.01 339.195 1816.61 343.304C1824.41 347.207 1832.84 349.159 1841.88 349.159Z" fill="black"/>
<path d="M1217.81 773.61H1128.44V414.08H1234.24L1332.86 658.047L1431.47 414.08H1537.27V773.61H1447.91V567.651L1369.32 773.61H1296.39L1217.81 567.651V773.61Z" fill="#00BEC4"/>
<path d="M1737.71 489.067H1719.74L1620.1 773.61H1527.64L1659.13 414.08H1800.89L1931.35 773.61H1838.89L1737.71 489.067ZM1623.69 626.716H1833.25V701.704H1623.69V626.716Z" fill="#00BEC4"/>
<path d="M2128.51 531.184C2128.51 518.172 2124.57 507.9 2116.7 500.367C2108.82 492.834 2096.84 489.067 2080.74 489.067H2010.38V573.814H2080.74C2091.36 573.814 2100.09 572.273 2106.94 569.191C2114.13 565.767 2119.44 560.802 2122.86 554.297C2126.63 547.791 2128.51 540.087 2128.51 531.184ZM2086.39 414.08C2116.18 414.08 2140.84 419.558 2160.35 430.515C2180.21 441.13 2194.94 455.34 2204.52 473.145C2214.45 490.951 2219.42 510.297 2219.42 531.184C2219.42 545.565 2216.68 559.775 2211.2 573.814C2206.07 587.853 2198.02 600.522 2187.06 611.821C2176.45 623.121 2162.75 632.195 2145.97 639.043C2129.19 645.549 2109.33 648.802 2086.39 648.802H2010.38V773.61H1921.01V414.08H2086.39ZM2131.59 617.985L2226.1 773.61H2127.48L2038.11 617.985H2131.59Z" fill="#00BEC4"/>
<path d="M2412.41 489.067H2394.44L2294.8 773.61H2202.35L2333.83 414.08H2475.59L2606.05 773.61H2513.6L2412.41 489.067ZM2298.39 626.716H2507.95V701.704H2298.39V626.716Z" fill="#00BEC4"/>
<path d="M2847.38 532.211C2838.82 516.46 2827.86 504.99 2814.51 497.799C2801.16 490.266 2785.58 486.499 2767.77 486.499C2749.28 486.499 2732.85 491.293 2718.46 500.881C2704.08 510.126 2692.78 522.966 2684.57 539.402C2676.69 555.495 2672.75 573.643 2672.75 593.845C2672.75 615.417 2676.69 634.249 2684.57 650.343C2692.44 666.436 2703.74 678.934 2718.46 687.836C2733.53 696.739 2751.51 701.19 2772.39 701.19C2784.38 701.19 2795.34 699.136 2805.27 695.027C2815.2 690.918 2824.1 685.268 2831.97 678.078C2839.85 670.545 2846.7 661.984 2852.52 652.397V637.502H2766.23V567.651H2934.7V672.942C2926.48 690.404 2914.67 707.183 2899.26 723.276C2883.85 739.027 2865.02 752.038 2842.76 762.311C2820.5 772.24 2794.82 777.205 2765.72 777.205C2738.32 777.205 2713.33 772.754 2690.73 763.851C2668.47 754.949 2649.13 742.28 2632.69 725.844C2616.26 709.408 2603.59 690.062 2594.68 667.805C2586.12 645.206 2581.84 620.553 2581.84 593.845C2581.84 567.137 2586.12 542.655 2594.68 520.398C2603.59 497.799 2616.08 478.282 2632.18 461.846C2648.61 445.41 2667.96 432.741 2690.22 423.838C2712.47 414.936 2737.3 410.484 2764.69 410.484C2791.06 410.484 2815.37 414.593 2837.62 422.811C2860.22 431.029 2879.57 442.842 2895.66 458.251C2912.1 473.317 2924.08 491.464 2931.61 512.694L2847.38 532.211Z" fill="#00BEC4"/>
<path d="M3109.86 777.205C3084.18 777.205 3060.21 772.754 3037.96 763.851C3015.7 754.949 2996.01 742.451 2978.89 726.357C2962.11 709.922 2948.93 690.576 2939.34 668.319C2929.76 645.72 2924.96 620.895 2924.96 593.845C2924.96 566.794 2929.76 542.141 2939.34 519.884C2948.93 497.285 2962.11 477.939 2978.89 461.846C2996.01 445.41 3015.7 432.741 3037.96 423.838C3060.21 414.936 3084.18 410.484 3109.86 410.484C3135.54 410.484 3159.51 414.936 3181.77 423.838C3204.37 432.741 3224.06 445.41 3240.83 461.846C3257.61 477.939 3270.8 497.285 3280.38 519.884C3289.97 542.141 3294.76 566.794 3294.76 593.845C3294.76 620.895 3289.97 645.72 3280.38 668.319C3270.8 690.576 3257.44 709.922 3240.32 726.357C3223.54 742.451 3204.03 754.949 3181.77 763.851C3159.51 772.754 3135.54 777.205 3109.86 777.205ZM3109.86 700.677C3128.7 700.677 3145.13 696.054 3159.17 686.809C3173.21 677.564 3184.17 664.895 3192.04 648.802C3199.92 632.708 3203.85 614.389 3203.85 593.845C3203.85 572.958 3199.92 554.639 3192.04 538.888C3184.17 522.795 3173.21 510.126 3159.17 500.881C3145.13 491.636 3128.7 487.013 3109.86 487.013C3090.69 487.013 3074.08 491.636 3060.04 500.881C3046 510.126 3035.05 522.795 3027.17 538.888C3019.64 554.639 3015.87 572.958 3015.87 593.845C3015.87 614.389 3019.64 632.708 3027.17 648.802C3035.05 664.895 3046 677.564 3060.04 686.809C3074.08 696.054 3090.69 700.677 3109.86 700.677Z" fill="#00BEC4"/>
<path d="M3547.66 532.211C3539.1 516.46 3528.15 504.99 3514.79 497.799C3501.44 490.266 3485.86 486.499 3468.05 486.499C3449.56 486.499 3433.13 491.293 3418.75 500.881C3404.36 510.126 3393.07 522.966 3384.85 539.402C3376.97 555.495 3373.03 573.643 3373.03 593.845C3373.03 615.417 3376.97 634.249 3384.85 650.343C3392.72 666.436 3404.02 678.934 3418.75 687.836C3433.81 696.739 3451.79 701.19 3472.68 701.19C3484.66 701.19 3495.62 699.136 3505.55 695.027C3515.48 690.918 3524.38 685.268 3532.25 678.078C3540.13 670.545 3546.98 661.984 3552.8 652.397V637.502H3466.51V567.651H3634.98V672.942C3626.76 690.404 3614.95 707.183 3599.54 723.276C3584.13 739.027 3565.3 752.038 3543.04 762.311C3520.78 772.24 3495.1 777.205 3466 777.205C3438.61 777.205 3413.61 772.754 3391.01 763.851C3368.75 754.949 3349.41 742.28 3332.97 725.844C3316.54 709.408 3303.87 690.062 3294.96 667.805C3286.4 645.206 3282.12 620.553 3282.12 593.845C3282.12 567.137 3286.4 542.655 3294.96 520.398C3303.87 497.799 3316.37 478.282 3332.46 461.846C3348.89 445.41 3368.24 432.741 3390.5 423.838C3412.75 414.936 3437.58 410.484 3464.97 410.484C3491.34 410.484 3515.65 414.593 3537.9 422.811C3560.5 431.029 3579.85 442.842 3595.94 458.251C3612.38 473.317 3624.36 491.464 3631.9 512.694L3547.66 532.211Z" fill="#00BEC4"/>
<path d="M3639.11 414.08H3728.48V773.61H3639.11V414.08Z" fill="#00BEC4"/>
<path d="M3127.08 838.5H3122.13L3087.48 933H3075.33L3113.73 828H3135.33L3173.58 933H3161.43L3127.08 838.5ZM3094.08 894.9H3155.28V905.4H3094.08V894.9ZM3195.01 828V922.5H3244.06V933H3183.01V828H3195.01ZM3296.79 838.5H3291.84L3257.19 933H3245.04L3283.44 828H3305.04L3343.29 933H3331.14L3296.79 838.5ZM3263.79 894.9H3324.99V905.4H3263.79V894.9ZM3434.92 859.5C3431.12 852 3426.07 846.5 3419.77 843C3413.47 839.4 3406.47 837.6 3398.77 837.6C3391.17 837.6 3384.32 839.35 3378.22 842.85C3372.12 846.35 3367.32 851.3 3363.82 857.7C3360.32 864.1 3358.57 871.7 3358.57 880.5C3358.57 889.2 3360.32 896.75 3363.82 903.15C3367.32 909.55 3372.12 914.5 3378.22 918C3384.32 921.5 3391.17 923.25 3398.77 923.25C3404.47 923.25 3409.77 922.3 3414.67 920.4C3419.57 918.4 3423.82 915.6 3427.42 912C3431.02 908.3 3433.77 903.9 3435.67 898.8V886.65H3399.67V876.9H3447.82V899.4C3445.52 906.1 3442.02 912.05 3437.32 917.25C3432.62 922.45 3426.97 926.55 3420.37 929.55C3413.77 932.55 3406.57 934.05 3398.77 934.05C3391.37 934.05 3384.47 932.75 3378.07 930.15C3371.77 927.55 3366.22 923.9 3361.42 919.2C3356.72 914.4 3353.02 908.75 3350.32 902.25C3347.72 895.65 3346.42 888.4 3346.42 880.5C3346.42 872.6 3347.72 865.4 3350.32 858.9C3353.02 852.3 3356.72 846.65 3361.42 841.95C3366.22 837.15 3371.77 833.45 3378.07 830.85C3384.47 828.25 3391.37 826.95 3398.77 826.95C3405.67 826.95 3412.12 828.1 3418.12 830.4C3424.22 832.6 3429.62 835.85 3434.32 840.15C3439.02 844.35 3442.72 849.5 3445.42 855.6L3434.92 859.5ZM3509.7 934.05C3502.3 934.05 3495.4 932.75 3489 930.15C3482.7 927.55 3477.15 923.9 3472.35 919.2C3467.65 914.4 3463.95 908.75 3461.25 902.25C3458.65 895.65 3457.35 888.4 3457.35 880.5C3457.35 872.6 3458.65 865.4 3461.25 858.9C3463.95 852.3 3467.65 846.65 3472.35 841.95C3477.15 837.15 3482.7 833.45 3489 830.85C3495.4 828.25 3502.3 826.95 3509.7 826.95C3517 826.95 3523.8 828.25 3530.1 830.85C3536.5 833.45 3542.05 837.15 3546.75 841.95C3551.45 846.65 3555.1 852.3 3557.7 858.9C3560.4 865.4 3561.75 872.6 3561.75 880.5C3561.75 888.4 3560.4 895.65 3557.7 902.25C3555.1 908.75 3551.45 914.4 3546.75 919.2C3542.05 923.9 3536.5 927.55 3530.1 930.15C3523.8 932.75 3517 934.05 3509.7 934.05ZM3509.7 923.55C3517.2 923.55 3523.95 921.8 3529.95 918.3C3535.95 914.8 3540.7 909.85 3544.2 903.45C3547.7 896.95 3549.45 889.3 3549.45 880.5C3549.45 871.6 3547.7 863.95 3544.2 857.55C3540.7 851.05 3535.95 846.1 3529.95 842.7C3523.95 839.2 3517.2 837.45 3509.7 837.45C3502.1 837.45 3495.25 839.2 3489.15 842.7C3483.15 846.1 3478.4 851.05 3474.9 857.55C3471.4 863.95 3469.65 871.6 3469.65 880.5C3469.65 889.3 3471.4 896.95 3474.9 903.45C3478.4 909.85 3483.15 914.8 3489.15 918.3C3495.25 921.8 3502.1 923.55 3509.7 923.55ZM3616.69 838.5H3611.74L3577.09 933H3564.94L3603.34 828H3624.94L3663.19 933H3651.04L3616.69 838.5ZM3583.69 894.9H3644.89V905.4H3583.69V894.9ZM3678.47 906.3C3679.07 909 3680.32 911.7 3682.22 914.4C3684.22 917 3686.92 919.2 3690.32 921C3693.82 922.7 3698.27 923.55 3703.67 923.55C3711.37 923.55 3717.07 921.75 3720.77 918.15C3724.47 914.55 3726.32 910.3 3726.32 905.4C3726.32 901.5 3725.27 898.3 3723.17 895.8C3721.07 893.3 3718.22 891.25 3714.62 889.65C3711.02 887.95 3706.97 886.45 3702.47 885.15C3698.47 884.05 3694.47 882.85 3690.47 881.55C3686.57 880.15 3683.02 878.45 3679.82 876.45C3676.62 874.35 3674.07 871.65 3672.17 868.35C3670.27 865.05 3669.32 860.95 3669.32 856.05C3669.32 850.15 3670.72 845.05 3673.52 840.75C3676.32 836.35 3680.27 832.95 3685.37 830.55C3690.47 828.15 3696.42 826.95 3703.22 826.95C3709.12 826.95 3714.27 827.8 3718.67 829.5C3723.07 831.2 3726.72 833.6 3729.62 836.7C3732.62 839.7 3734.82 843.2 3736.22 847.2L3725.57 851.25C3724.87 848.95 3723.52 846.75 3721.52 844.65C3719.52 842.45 3716.92 840.65 3713.72 839.25C3710.52 837.85 3706.87 837.15 3702.77 837.15C3698.77 837.15 3695.12 837.85 3691.82 839.25C3688.62 840.65 3686.07 842.65 3684.17 845.25C3682.27 847.85 3681.32 851 3681.32 854.7C3681.32 858.7 3682.42 861.9 3684.62 864.3C3686.92 866.6 3689.92 868.5 3693.62 870C3697.42 871.4 3701.57 872.75 3706.07 874.05C3710.17 875.35 3714.12 876.75 3717.92 878.25C3721.82 879.75 3725.27 881.6 3728.27 883.8C3731.37 886 3733.82 888.75 3735.62 892.05C3737.42 895.35 3738.32 899.4 3738.32 904.2C3738.32 909.5 3737.07 914.45 3734.57 919.05C3732.07 923.55 3728.27 927.2 3723.17 930C3718.17 932.7 3711.72 934.05 3703.82 934.05C3697.22 934.05 3691.42 933.05 3686.42 931.05C3681.42 928.95 3677.32 926.15 3674.12 922.65C3670.92 919.15 3668.72 915.15 3667.52 910.65L3678.47 906.3Z" fill="black"/>
<defs>
<linearGradient id="paint0_linear_7_91" x1="106.658" y1="367.486" x2="421.575" y2="345.656" gradientUnits="userSpaceOnUse">
<stop stop-color="#00A2D5"/>
<stop offset="1" stop-color="#00F2A5"/>
</linearGradient>
<linearGradient id="paint1_linear_7_91" x1="592.555" y1="717.877" x2="972.002" y2="691.136" gradientUnits="userSpaceOnUse">
<stop stop-color="#00A2D5"/>
<stop offset="1" stop-color="#00F2A5"/>
</linearGradient>
<linearGradient id="paint2_linear_7_91" x1="585.799" y1="729.426" x2="963.838" y2="629.736" gradientUnits="userSpaceOnUse">
<stop stop-color="#00A2D5"/>
<stop offset="1" stop-color="#00F2A5"/>
</linearGradient>
<linearGradient id="paint3_linear_7_91" x1="443.37" y1="930.914" x2="121.675" y2="897.235" gradientUnits="userSpaceOnUse">
<stop stop-color="#00A2D5"/>
<stop offset="1" stop-color="#00F2A5"/>
</linearGradient>
<linearGradient id="paint4_linear_7_91" x1="586.477" y1="171.793" x2="700.103" y2="163.259" gradientUnits="userSpaceOnUse">
<stop stop-color="#00A2D5"/>
<stop offset="1" stop-color="#00F2A5"/>
</linearGradient>
</defs>
</svg>
